<?xml version="1.0"?>
<svg xmlns="http://www.w3.org/2000/svg" xmlns:xlink="http://www.w3.org/1999/xlink" xmlns:svgjs="http://svgjs.com/svgjs" version="1.1" width="512" height="512" x="0" y="0" viewBox="0 0 64 64" style="enable-background:new 0 0 512 512" xml:space="preserve" class=""><g><g xmlns="http://www.w3.org/2000/svg" id="Layer_24" data-name="Layer 24"><path d="M62,1H2A1,1,0,0,0,1,2V46a1,1,0,0,0,1,1h8.21A11,11,0,0,0,28.48,59h7A11,11,0,0,0,53.79,47H62a1,1,0,0,0,1-1V2A1,1,0,0,0,62,1ZM20,61a9,9,0,1,1,9-9A9,9,0,0,1,20,61Zm9.79-4A11,11,0,0,0,26.3,43H37.7a11,11,0,0,0-3.49,14ZM28,33H20a7,7,0,0,1-.95-13.93,13,13,0,0,0,25.9,0A7,7,0,0,1,44,33H36a5,5,0,0,0-4,2A5,5,0,0,0,28,33ZM21,18A11,11,0,1,1,32,29,11,11,0,0,1,21,18ZM33,39v2H31V39ZM44,61a9,9,0,1,1,9-9A9,9,0,0,1,44,61ZM61,45H52.48A11,11,0,0,0,44,41H35V38a1,1,0,0,0-1-1h-.82A3,3,0,0,1,36,35h8a9,9,0,0,0,1-17.95,13,13,0,0,0-25.9,0A9,9,0,0,0,20,35h8a3,3,0,0,1,2.82,2H30a1,1,0,0,0-1,1v3H20a11,11,0,0,0-8.48,4H3V3H61Z" fill="#ffffff" data-original="#000000" style="" class=""/><path d="M26,49H23V46a1,1,0,0,0-1-1H18a1,1,0,0,0-1,1v3H14a1,1,0,0,0-1,1v4a1,1,0,0,0,1,1h3v3a1,1,0,0,0,1,1h4a1,1,0,0,0,1-1V55h3a1,1,0,0,0,1-1V50A1,1,0,0,0,26,49Zm-1,4H22a1,1,0,0,0-1,1v3H19V54a1,1,0,0,0-1-1H15V51h3a1,1,0,0,0,1-1V47h2v3a1,1,0,0,0,1,1h3Z" fill="#ffffff" data-original="#000000" style="" class=""/><path d="M43.29,45.29l-2,2,1.42,1.42L44,47.41l1.29,1.3,1.42-1.42-2-2A1,1,0,0,0,43.29,45.29Z" fill="#ffffff" data-original="#000000" style="" class=""/><path d="M44,56.59l-1.29-1.3-1.42,1.42,2,2a1,1,0,0,0,1.42,0l2-2-1.42-1.42Z" fill="#ffffff" data-original="#000000" style="" class=""/><path d="M47.29,50.71,48.59,52l-1.3,1.29,1.42,1.42,2-2a1,1,0,0,0,0-1.42l-2-2Z" fill="#ffffff" data-original="#000000" style="" class=""/><path d="M39.29,49.29l-2,2a1,1,0,0,0,0,1.42l2,2,1.42-1.42L39.41,52l1.3-1.29Z" fill="#ffffff" data-original="#000000" style="" class=""/><path d="M32,23a2,2,0,0,1-2-2H28a4,4,0,0,0,3,3.86V27h2V24.86A4,4,0,0,0,32,17a2,2,0,1,1,2-2h2a4,4,0,0,0-3-3.86V9H31v2.14A4,4,0,0,0,32,19a2,2,0,0,1,0,4Z" fill="#ffffff" data-original="#000000" style="" class=""/></g></g></svg>
