<?xml version="1.0"?>
<svg xmlns="http://www.w3.org/2000/svg" xmlns:xlink="http://www.w3.org/1999/xlink" xmlns:svgjs="http://svgjs.com/svgjs" version="1.1" width="512" height="512" x="0" y="0" viewBox="0 0 512 512" style="enable-background:new 0 0 512 512" xml:space="preserve" class=""><g><g xmlns="http://www.w3.org/2000/svg"><path d="m223.77 57.629v-10.404c0-4.138 3.345-7.483 7.483-7.483s7.512 3.345 7.512 7.483v10.404h16.696v-10.404c0-4.138 3.373-7.483 7.512-7.483s7.512 3.345 7.512 7.483v11.283c5.895 1.417 11.225 4.45 15.392 8.617 5.925 5.868 9.581 13.946 9.581 22.819 0 9.667-4.365 18.68-11.764 24.832 7.398 6.151 11.764 15.166 11.764 24.804 0 8.901-3.656 16.979-9.581 22.847-4.167 4.167-9.496 7.201-15.392 8.618v11.282c0 4.139-3.373 7.483-7.512 7.483s-7.512-3.345-7.512-7.483v-10.403h-16.696v10.403c0 4.139-3.374 7.483-7.512 7.483-4.139 0-7.483-3.345-7.483-7.483v-10.403h-27.1c-4.139 0-7.512-3.373-7.512-7.512s3.373-7.484 7.512-7.484h8.362v-42.152-42.152h-8.362c-4.139 0-7.512-3.345-7.512-7.483 0-4.139 3.373-7.512 7.512-7.512zm-77.16 146.411c-3.912-4.678-7.483-9.667-10.658-14.911h-98.534c-6.151 0-11.764 2.523-15.817 6.605-4.082 4.054-6.604 9.667-6.604 15.818s2.523 11.735 6.604 15.817c4.054 4.053 9.666 6.577 15.817 6.577h432.204v-44.817h-120.929c-3.203 5.244-6.774 10.233-10.686 14.911h109.19c4.168 0 7.513 3.373 7.513 7.512s-3.345 7.483-7.513 7.483h-409.779c-4.139 0-7.512-3.345-7.512-7.483 0-4.139 3.373-7.512 7.512-7.512zm-18.455-29.906c-6.633-15.222-10.318-32.003-10.318-49.664 0-34.356 13.92-65.48 36.455-88.017 22.535-22.507 53.66-36.453 88.017-36.453 18.397 0 35.915 4.025 51.676 11.225 16.385 7.484 30.814 18.398 42.435 31.834 2.721 3.118 2.381 7.824-.737 10.544-3.146 2.694-7.852 2.354-10.573-.765-10.232-11.82-22.932-21.43-37.333-28.006-13.805-6.321-29.197-9.836-45.468-9.836-30.219 0-57.601 12.274-77.415 32.06-19.814 19.815-32.06 47.198-32.06 77.415 0 15.761 3.316 30.728 9.297 44.25 5.925 13.408 14.457 25.398 24.974 35.32h150.408c10.517-9.95 19.077-21.969 25.002-35.405 5.952-13.494 9.269-28.432 9.269-44.165 0-7.937-.821-15.619-2.409-23.017-1.615-7.626-4.054-14.939-7.171-21.884-1.701-3.771-.029-8.192 3.741-9.893s8.221-.028 9.921 3.742c3.544 7.909 6.293 16.243 8.164 24.917 1.815 8.476 2.75 17.206 2.75 26.135 0 17.632-3.657 34.442-10.318 49.664h120.673c4.139 0 7.483 3.373 7.483 7.512v127.533c7.455 0 14.173 2.607 19.474 7.908 4.876 4.904 7.909 11.622 7.909 19.021v15.024c0 4.139-3.346 7.512-7.483 7.512-4.139 0-7.513-3.374-7.513-7.512v-15.024c0-3.288-1.332-6.265-3.486-8.418-2.154-2.155-5.131-3.515-8.418-3.515h-124.133c-3.288 0-6.293 1.36-8.447 3.515-2.154 2.154-3.486 5.13-3.486 8.418v64.064c0 3.26 1.332 6.236 3.486 8.391s5.159 3.515 8.447 3.515h124.132c3.287 0 6.264-1.361 8.418-3.515s3.486-5.13 3.486-8.391v-15.053c0-4.138 3.374-7.512 7.513-7.512 4.138 0 7.483 3.374 7.483 7.512v15.052c0 7.37-3.033 14.117-7.909 18.993-5.301 5.301-12.018 7.909-19.474 7.909v40.734c0 13.635-2.977 24.492-10.205 32.259-7.229 7.823-18.199 11.933-33.988 11.933h-184.509c-4.139 0-7.512-3.345-7.512-7.483s3.373-7.512 7.512-7.512h184.509c11.311 0 18.709-2.466 23.046-7.115 4.337-4.705 6.152-12.189 6.152-22.082v-40.734h-108.654c-7.398 0-14.116-3.033-18.992-7.909-4.903-4.876-7.936-11.623-7.936-18.993v-64.064c0-7.398 3.033-14.116 7.936-19.021 4.876-4.876 11.594-7.908 18.992-7.908h108.654v-60.237h-432.204c-8.391 0-16.158-2.778-22.422-7.483v233.152c0 6.151 2.523 11.735 6.604 15.817 4.054 4.054 9.666 6.577 15.817 6.577h184.51c4.139 0 7.512 3.373 7.512 7.512s-3.373 7.483-7.511 7.483h-184.51c-10.29 0-19.645-4.195-26.419-10.97-6.804-6.775-10.999-16.129-10.999-26.419v-263.059c0-10.29 4.195-19.645 10.999-26.419 6.774-6.803 16.129-10.999 26.419-10.999zm269.693 166.538c7.568 0 14.429 3.09 19.389 8.05 4.961 4.961 8.051 11.821 8.051 19.418 0 7.568-3.09 14.429-8.051 19.39-4.96 4.989-11.82 8.05-19.389 8.05-7.597 0-14.458-3.061-19.418-8.05-4.961-4.961-8.051-11.821-8.051-19.39 0-7.597 3.09-14.457 8.051-19.418 4.96-4.96 11.821-8.05 19.418-8.05zm8.787 18.652c-2.239-2.239-5.357-3.657-8.787-3.657-3.458 0-6.576 1.417-8.815 3.657-2.24 2.268-3.658 5.357-3.658 8.816 0 3.43 1.418 6.548 3.658 8.788 2.239 2.268 5.357 3.656 8.815 3.656 3.43 0 6.548-1.389 8.787-3.656 2.268-2.239 3.657-5.358 3.657-8.788 0-3.458-1.389-6.548-3.657-8.816zm-143.661-237.065h-42.945v34.668h42.945c4.818 0 9.212-1.956 12.358-5.103 3.175-3.146 5.131-7.455 5.131-12.217 0-4.79-1.956-9.099-5.131-12.246-3.147-3.146-7.54-5.102-12.358-5.102zm0-49.635h-42.945v34.64h42.945c4.818 0 9.212-1.928 12.358-5.074 3.175-3.146 5.131-7.483 5.131-12.246s-1.956-9.071-5.131-12.218c-3.147-3.146-7.54-5.102-12.358-5.102z" fill="#ffffff" data-original="#000000" style="" class=""/></g></g></svg>
