<?xml version="1.0"?>
<svg xmlns="http://www.w3.org/2000/svg" xmlns:xlink="http://www.w3.org/1999/xlink" xmlns:svgjs="http://svgjs.com/svgjs" version="1.1" width="512" height="512" x="0" y="0" viewBox="0 0 512.001 512.001" style="enable-background:new 0 0 512 512" xml:space="preserve" class=""><g><g xmlns="http://www.w3.org/2000/svg"><path d="m10 160.02c5.523 0 10-4.477 10-10 0-49.853 29.165-95.956 74.3-117.453 4.986-2.375 7.104-8.342 4.729-13.328-2.376-4.987-8.343-7.103-13.328-4.728-25.247 12.024-46.626 30.83-61.826 54.386-15.619 24.205-23.875 52.257-23.875 81.123 0 5.523 4.477 10 10 10z" fill="#ffffff" data-original="#000000" style="" class=""/><path d="m205.7 32.567c45.135 21.497 74.3 67.6 74.3 117.453 0 5.523 4.477 10 10 10s10-4.477 10-10c0-28.866-8.256-56.918-23.875-81.124-15.2-23.555-36.579-42.362-61.825-54.386-4.984-2.375-10.953-.258-13.328 4.728s-.258 10.955 4.728 13.329z" fill="#ffffff" data-original="#000000" style="" class=""/><path d="m290 300.02c5.523 0 10-4.477 10-10s-4.477-10-10-10c-16.542 0-30-13.458-30-30v-100c0-50.258-33.88-92.751-80-105.841v-14.159c0-16.542-13.458-30-30-30s-30 13.458-30 30v14.159c-46.12 13.09-80 55.583-80 105.841v100c0 16.542-13.458 30-30 30-5.523 0-10 4.477-10 10s4.477 10 10 10h110v10c0 16.542 13.458 30 30 30s30-13.458 30-30v-10zm-150-270c0-5.514 4.486-10 10-10s10 4.486 10 10v10.46c-3.295-.298-6.629-.459-10-.459s-6.705.161-10 .459zm10 30c49.626 0 90 40.374 90 90v90h-180v-90c0-49.626 40.374-90 90-90zm-91.009 200h182.019c1.505 7.384 4.639 14.184 9.014 20h-200.047c4.375-5.816 7.508-12.615 9.014-20z" fill="#ffffff" data-original="#000000" style="" class=""/><path d="m512 343.973c0-16.516-13.458-29.952-30-29.952-3.904 0-7.633.758-11.057 2.121-3.47-12.731-15.127-22.121-28.943-22.121-3.904 0-7.633.758-11.057 2.121-3.47-12.731-15.127-22.121-28.943-22.121-3.506 0-6.87.61-10 1.72v-51.72c0-16.542-13.458-30-30-30s-30 13.458-30 30v126.972l-.134-.2c-7.368-11.052-19.188-17.994-32.429-19.045-13.248-1.053-26.009 3.938-35.029 13.688-3.04 3.287-3.525 8.193-1.188 12.012l64.598 105.522c18.625 30.423 51.085 49.014 85.241 49.012 57.786-.015 98.944-50.536 98.942-106.581 0-.014-.001-37.72-.001-61.428zm-19.992 61.428c.001 32.188-17.189 62.819-43.783 78.036-9.216 5.273-20.311 8.137-32.976 8.512-28.02.827-54.98-14.277-70.374-39.422l-60.02-98.044c3.907-2.168 8.397-3.165 12.998-2.798 7.093.563 13.424 4.282 17.372 10.202l18.454 27.681c2.444 3.667 7.002 5.301 11.218 4.024 4.217-1.277 7.102-5.164 7.102-9.571v-160c0-5.514 4.486-10 10-10s10 4.486 10 10v140c0 5.523 4.477 10 10 10s10-4.477 10-10v-60c0-5.514 4.486-10 10-10s10 4.486 10 10v60c0 5.523 4.477 10 10 10s10-4.477 10-10v-40c0-5.514 4.486-10 10-10s10 4.486 10 10v40c0 5.523 4.477 10 10 10s10-4.477 10-10v-20c0-5.514 4.486-10 10-10s10 4.465 10 9.952c0 0 .001 61.345.001 61.401.001.009.008.018.008.027z" fill="#ffffff" data-original="#000000" style="" class=""/></g></g></svg>
