<?xml version="1.0"?>
<svg xmlns="http://www.w3.org/2000/svg" xmlns:xlink="http://www.w3.org/1999/xlink" xmlns:svgjs="http://svgjs.com/svgjs" version="1.1" width="512" height="512" x="0" y="0" viewBox="0 0 512 512" style="enable-background:new 0 0 512 512" xml:space="preserve" class=""><g><g xmlns="http://www.w3.org/2000/svg" id="Solid"><path d="M484.47314,182.34155a23.989,23.989,0,0,0-31.87841-14.83569l-21.8335,8.87695A24.043,24.043,0,0,0,408,160H392a24.027,24.027,0,0,0-24,24V336a23.83246,23.83246,0,0,0,1.53955,8.45557A145.16993,145.16993,0,0,1,346.398,368H202.43579a20.01452,20.01452,0,0,0-2.49585-7.99585l-.00342-.00561c.02124,0,.04224.00146.06348.00146h16a24.02719,24.02719,0,0,0,24-24V288a24.02719,24.02719,0,0,0-24-24H200a24.02719,24.02719,0,0,0-24,24v48a23.86081,23.86081,0,0,0,4.41357,13.844,20.8389,20.8389,0,0,0-2.13159.34253l-53.03393,11.36426A40.15311,40.15311,0,0,0,110.5415,368H88a24,24,0,0,0,0,48h7.91943l9.63526,47.69263a19.99575,19.99575,0,0,0,36.47314,6.78344,3.06413,3.06413,0,0,1,2.6001-1.41772,3.128,3.128,0,0,1,1.44873.35669,240.20173,240.20173,0,0,0,279.62891-43.70947c5.291-5.29029,10.417-10.91724,15.24218-16.731a24.05453,24.05453,0,0,0,3.16455-3.90845,240.38991,240.38991,0,0,0,40.36084-222.72461ZM256,484a225.06449,225.06449,0,0,1-104.41016-25.24316,15.20787,15.20787,0,0,0-7.002-1.71778,14.99824,14.99824,0,0,0-12.68164,6.99121,7.99979,7.99979,0,0,1-14.58887-2.71386L106.18359,406.208a28.10177,28.10177,0,0,1,21.57813-32.92383l53.03418-11.36426A8.00039,8.00039,0,0,1,189.2207,374.04l-2.03515,3.19531a15.10988,15.10988,0,0,0,6.78515,21.97559A154.77917,154.77917,0,0,0,256,412H422.28125q-2.48585,2.6455-5.06055,5.2207A226.50405,226.50405,0,0,1,256,484ZM424,372H360.21777a156.16408,156.16408,0,0,0,45.294-160.7002,11.94,11.94,0,0,1,6.97461-14.5332l44.62793-18.14453a11.99879,11.99879,0,0,1,15.93847,7.40527A228.59236,228.59236,0,0,1,443.17285,386.2998,20.0361,20.0361,0,0,0,424,372Z" fill="#ffffff" data-original="#000000" style="" class=""/><path d="M104,360h16a24.02719,24.02719,0,0,0,24-24V224a24.03721,24.03721,0,0,0-20.7583-23.782A144.29686,144.29686,0,0,1,256,112a145.96823,145.96823,0,0,1,20.89111,1.49438A23.87947,23.87947,0,0,0,272,128V336a24.027,24.027,0,0,0,24,24h16a24.027,24.027,0,0,0,24-24V161.32446L386.752,150.449a40,40,0,0,0,30.82715-47.0332l-11.13379-55.1084a19.99587,19.99587,0,0,0-36.47314-6.78369,3.06351,3.06351,0,0,1-2.6001,1.418,3.12638,3.12638,0,0,1-1.44873-.35669A240.05557,240.05557,0,0,0,16,256a239.45413,239.45413,0,0,0,11.52686,73.65845A23.98871,23.98871,0,0,0,59.405,344.49414l20.59521-8.37329A24.02758,24.02758,0,0,0,104,360ZM256,28A225.06449,225.06449,0,0,1,360.41016,53.24316a15.02333,15.02333,0,0,0,19.68359-5.27343,7.99979,7.99979,0,0,1,14.58887,2.71386l11.13379,55.1084a28.10177,28.10177,0,0,1-21.57813,32.92383L332,149.90991V128a20.02229,20.02229,0,0,0-20-20h-6.47119A156.25594,156.25594,0,0,0,108.9126,204H104a20.02229,20.02229,0,0,0-20,20v97.541L54.88574,333.37793a11.99879,11.99879,0,0,1-15.93847-7.40527A228.05708,228.05708,0,0,1,256,28Z" fill="#ffffff" data-original="#000000" style="" class=""/></g></g></svg>
