<?xml version="1.0"?>
<svg xmlns="http://www.w3.org/2000/svg" xmlns:xlink="http://www.w3.org/1999/xlink" xmlns:svgjs="http://svgjs.com/svgjs" version="1.1" width="512" height="512" x="0" y="0" viewBox="0 0 512 512" style="enable-background:new 0 0 512 512" xml:space="preserve" class=""><g><g xmlns="http://www.w3.org/2000/svg"><path d="m104.315 230.11c0-19.74 3.868-38.894 11.498-56.929 1.614-3.814-.17-8.215-3.985-9.829-3.815-1.613-8.216.17-9.829 3.985-8.416 19.894-12.684 41.014-12.684 62.772v83.93c0 7.002-1.826 13.908-5.283 19.988-.043.068-.084.138-.125.208l-21.443 37.14c-2.071 3.587-.842 8.174 2.745 10.245 3.564 2.057 8.162.865 10.245-2.745l19.278-33.39h227.981c4.143 0 7.5-3.357 7.5-7.5s-3.357-7.5-7.5-7.5h-220.895c1.647-5.305 2.497-10.853 2.497-16.446z" fill="#ff1818" data-original="#000000" style="" class=""/><path d="m250.506 83.92c14.077 0 25.53-11.457 25.53-25.54 0-14.077-11.453-25.53-25.53-25.53-14.083 0-25.54 11.453-25.54 25.53 0 14.083 11.457 25.54 25.54 25.54zm0-36.07c5.807 0 10.53 4.724 10.53 10.53 0 5.812-4.724 10.54-10.53 10.54-5.812 0-10.54-4.729-10.54-10.54 0-5.807 4.728-10.53 10.54-10.53z" fill="#ff1818" data-original="#000000" style="" class=""/><path d="m221.386 100.787c-1.824 3.719-.289 8.212 3.43 10.037 8.036 3.943 16.679 5.942 25.687 5.942 8.928 0 17.5-1.965 25.479-5.841 3.727-1.81 5.279-6.297 3.47-10.022s-6.298-5.282-10.022-3.47c-5.921 2.875-12.288 4.333-18.927 4.333-6.697 0-13.117-1.483-19.079-4.409-3.722-1.823-8.212-.288-10.038 3.43z" fill="#ff1818" data-original="#000000" style="" class=""/><path d="m484.236 107.269c0-45.561-37.066-82.627-82.628-82.627-38.051 0-70.177 25.855-79.734 60.919-5.38-2.665-10.915-5.031-16.561-7.076 2.943-8.024 4.097-16.68 3.344-25.299-2.286-26.144-24.64-53.186-58.092-53.186-32.229 0-58.449 26.189-58.449 58.38 0 6.931 1.197 13.671 3.567 20.101-30.17 10.892-56.116 30.319-75.235 56.384-2.449 3.34-1.729 8.033 1.612 10.483s8.033 1.728 10.483-1.612c18.104-24.681 42.947-42.8 71.841-52.396 3.006-.996 5.445-3.21 6.694-6.074 1.245-2.854 1.208-6.135-.096-8.989-2.566-5.644-3.867-11.664-3.867-17.896 0-23.92 19.491-43.38 43.449-43.38 27.38 0 41.715 23.095 43.148 39.492.665 7.611-.66 15.247-3.841 22.102-1.297 2.815-1.345 6.022-.132 8.799 1.199 2.745 3.549 4.861 6.431 5.802 7.935 2.611 15.666 5.922 23.041 9.865-3.305 44.291 28.863 82.57 71.67 88.143 3.852 13.234 5.803 26.972 5.803 40.908v83.93c0 5.595.851 11.143 2.499 16.446h-41.471c-4.143 0-7.5 3.357-7.5 7.5s3.357 7.5 7.5 7.5h48.558l50.461 87.399c-116.75 0-173.501-.001-173.601 0-323.471 0-35.508 0-238.859 0l13.531-23.438c2.071-3.587.842-8.174-2.745-10.245-3.589-2.07-8.175-.843-10.245 2.745l-15.292 26.486c-2.344 4.061-2.344 8.908 0 12.968s6.542 6.483 11.23 6.483h168.139l-2.106 12.212c-4.669 27.079 16.177 51.902 43.719 51.902 27.48 0 48.399-24.761 43.717-51.902l-2.106-12.212h168.14c4.688 0 8.885-2.423 11.229-6.482s2.345-8.906.001-12.969c-.952-1.649-53.563-92.771-54.386-94.199-3.54-6.123-5.412-13.106-5.412-20.195v-83.93c0-13.704-1.713-27.238-5.1-40.363 43.254-2.583 77.651-38.59 77.651-82.479zm-204.798 355.378c3.091 17.921-10.706 34.353-28.936 34.353-18.19 0-32.032-16.391-28.936-34.354l2.546-14.761h52.78zm122.17-287.751c-37.29 0-67.627-30.337-67.627-67.627 0-37.365 30.413-67.627 67.627-67.627 37.29 0 67.628 30.337 67.628 67.627s-30.338 67.627-67.628 67.627z" fill="#ff1818" data-original="#000000" style="" class=""/><path d="m445.745 85.977h-88.273c-6.889 0-12.495 5.605-12.498 12.498l.001 17.588c0 6.892 5.606 12.498 12.498 12.498h88.272c6.892 0 12.498-5.606 12.498-12.498v-17.588c0-6.892-5.606-12.498-12.498-12.498zm-2.502 27.584h-83.269l-.001-12.584h83.27z" fill="#ff1818" data-original="#000000" style="" class=""/></g></g></svg>
